<svg viewBox="0 0 1200 680" xmlns="http://www.w3.org/2000/svg" role="img" aria-labelledby="title desc">
<title id="title">Bay window reading cottage illustration</title>
<desc id="desc">Hand-painted style illustration of a small cottage with a curved bay window, a rose trellis over the porch, and a pastel pink and sage palette.</desc>
<defs>
  <linearGradient id="sky6" x1="0" y1="0" x2="0" y2="1">
    <stop offset="0%" stop-color="#F8E9E6"/>
    <stop offset="55%" stop-color="#FAF0EA"/>
    <stop offset="100%" stop-color="#FDF7F0"/>
  </linearGradient>
  <linearGradient id="ground6" x1="0" y1="0" x2="0" y2="1">
    <stop offset="0%" stop-color="#E8DECC"/>
    <stop offset="100%" stop-color="#DCD0B2"/>
  </linearGradient>
  <radialGradient id="sunGlow6" cx="50%" cy="50%" r="50%">
    <stop offset="0%" stop-color="#FCE2B8" stop-opacity="0.8"/>
    <stop offset="100%" stop-color="#FCE2B8" stop-opacity="0"/>
  </radialGradient>
</defs>

<rect width="1200" height="680" fill="url(#sky6)"/>
<circle cx="960" cy="130" r="120" fill="url(#sunGlow6)"/>
<circle cx="960" cy="130" r="38" fill="#FBD89C"/>

<rect x="0" y="480" width="1200" height="200" fill="url(#ground6)"/>

<rect x="430" y="340" width="350" height="140" fill="#F5EDE4"/>
<rect x="430" y="340" width="350" height="140" fill="none" stroke="#C9A97A" stroke-width="2.5" opacity="0.4"/>
<polygon points="410,345 605,250 800,345" fill="#D89B96"/>
<polygon points="410,345 605,250 800,345" fill="none" stroke="#B57872" stroke-width="2" opacity="0.4"/>

<g>
  <path d="M460 480 L460 400 Q460 370 500 365 Q540 360 560 380 Q575 395 575 420 L575 480 Z" fill="#E8DECC"/>
  <path d="M460 480 L460 400 Q460 370 500 365 Q540 360 560 380 Q575 395 575 420 L575 480 Z" fill="none" stroke="#C9A461" stroke-width="2.5" opacity="0.5"/>
  <rect x="475" y="395" width="35" height="60" rx="2" fill="#BFE0E8" opacity="0.9"/>
  <rect x="518" y="390" width="35" height="65" rx="2" fill="#BFE0E8" opacity="0.9"/>
</g>

<g>
  <rect x="640" y="385" width="100" height="80" rx="2" fill="#8FA68F"/>
  <rect x="648" y="392" width="84" height="66" rx="2" fill="#BFE0E8"/>
  <line x1="690" y1="392" x2="690" y2="458" stroke="#8FA68F" stroke-width="3"/>
</g>

<g>
  <rect x="586" y="412" width="18" height="20" rx="3" fill="#D89B96"/>
  <rect x="568" y="432" width="200" height="48" fill="#D89B96"/>
</g>

<g opacity="0.95">
  <path d="M560 432 Q540 380 560 340" stroke="#6E8B6C" stroke-width="6" fill="none" stroke-linecap="round"/>
  <path d="M576 432 Q596 380 576 340" stroke="#6E8B6C" stroke-width="6" fill="none" stroke-linecap="round"/>
  <circle cx="552" cy="370" r="7" fill="#E0A8B8"/>
  <circle cx="568" cy="350" r="7" fill="#D89B96"/>
  <circle cx="584" cy="375" r="7" fill="#E0A8B8"/>
  <circle cx="560" cy="395" r="6" fill="#D89B96"/>
  <circle cx="580" cy="400" r="6" fill="#E0A8B8"/>
</g>

<g opacity="0.95">
  <ellipse cx="350" cy="478" rx="40" ry="11" fill="#A7B89C"/>
  <path d="M322 478 Q328 452 338 460 Q342 436 354 448 Q362 432 370 452 Q378 442 370 478 Z" fill="#6B8468"/>
</g>
<g opacity="0.9">
  <ellipse cx="840" cy="482" rx="38" ry="10" fill="#A7B89C"/>
  <path d="M812 482 Q818 456 828 463 Q832 440 842 451 Q850 437 858 457 Q866 448 858 482 Z" fill="#6B8468"/>
</g>

<path d="M0 575 Q300 558 600 568 T1200 562 L1200 680 L0 680 Z" fill="#DCD0B2"/>
<path d="M0 608 Q300 593 600 602 T1200 596 L1200 680 L0 680 Z" fill="#CFC2A2"/>

<g opacity="0.8">
  <ellipse cx="140" cy="615" rx="6" ry="9" fill="#7A9276"/>
  <ellipse cx="1080" cy="618" rx="6" ry="9" fill="#7A9276"/>
</g>
</svg>
